<svg width="30" height="20" viewBox="0 0 30 20" fill="none" xmlns="http://www.w3.org/2000/svg">
<g clip-path="url(#clip0_634_467)">
<path d="M25.0407 19.9934H4.95947C3.90313 19.9921 2.89041 19.5719 2.14346 18.825C1.39652 18.078 0.976338 17.0653 0.975098 16.009V3.99023C0.976338 2.93389 1.39652 1.92117 2.14346 1.17423C2.89041 0.42728 3.90313 0.00709994 4.95947 0.00585938H25.0407C26.0971 0.00709994 27.1098 0.42728 27.8567 1.17423C28.6037 1.92117 29.0239 2.93389 29.0251 3.99023V16.009C29.0239 17.0653 28.6037 18.078 27.8567 18.825C27.1098 19.5719 26.0971 19.9921 25.0407 19.9934ZM4.95947 1.41211C4.27571 1.41211 3.61996 1.68373 3.13646 2.16722C2.65297 2.65072 2.38135 3.30647 2.38135 3.99023V16.009C2.38135 16.6927 2.65297 17.3485 3.13646 17.832C3.61996 18.3155 4.27571 18.5871 4.95947 18.5871H25.0407C25.7245 18.5871 26.3802 18.3155 26.8637 17.832C27.3472 17.3485 27.6188 16.6927 27.6188 16.009V3.99023C27.6188 3.30647 27.3472 2.65072 26.8637 2.16722C26.3802 1.68373 25.7245 1.41211 25.0407 1.41211H4.95947Z" fill="#222222"/>
<path d="M14.9998 12.8496C14.1324 12.8509 13.2882 12.5695 12.5951 12.048L1.64979 3.76986C1.57245 3.71559 1.50685 3.64628 1.4569 3.56609C1.40695 3.4859 1.37367 3.39646 1.35905 3.30312C1.34443 3.20978 1.34878 3.11445 1.37183 3.02282C1.39487 2.9312 1.43615 2.84516 1.49319 2.76984C1.55023 2.69452 1.62186 2.63147 1.70381 2.58446C1.78576 2.53744 1.87634 2.50742 1.97015 2.49619C2.06396 2.48497 2.15907 2.49276 2.2498 2.51911C2.34053 2.54546 2.42502 2.58982 2.49823 2.64955L13.4435 10.937C13.893 11.2726 14.4389 11.4539 14.9998 11.4539C15.5607 11.4539 16.1066 11.2726 16.556 10.937L27.5014 2.64955C27.5746 2.58982 27.659 2.54546 27.7498 2.51911C27.8405 2.49276 27.9356 2.48497 28.0294 2.49619C28.1232 2.50742 28.2138 2.53744 28.2958 2.58446C28.3777 2.63147 28.4494 2.69452 28.5064 2.76984C28.5634 2.84516 28.6047 2.9312 28.6278 3.02282C28.6508 3.11445 28.6551 3.20978 28.6405 3.30312C28.6259 3.39646 28.5926 3.4859 28.5427 3.56609C28.4927 3.64628 28.4271 3.71559 28.3498 3.76986L17.4045 12.048C16.7114 12.5695 15.8672 12.8509 14.9998 12.8496Z" fill="#222222"/>
<path d="M1.95465 18.0347C1.81204 18.0349 1.67274 17.9917 1.55523 17.9109C1.43772 17.8301 1.34756 17.7155 1.29671 17.5823C1.24586 17.449 1.23672 17.3035 1.27051 17.165C1.3043 17.0264 1.37942 16.9014 1.4859 16.8065L10.1109 9.11436C10.2501 8.99004 10.4331 8.92612 10.6194 8.93667C10.8058 8.94722 10.9803 9.03137 11.1046 9.17061C11.229 9.30985 11.2929 9.49277 11.2823 9.67914C11.2718 9.8655 11.1876 10.04 11.0484 10.1644L2.4234 17.8565C2.29531 17.9731 2.12781 18.0367 1.95465 18.0347ZM28.0453 18.0347C27.8721 18.0367 27.7046 17.9731 27.5765 17.8565L18.9515 10.1644C18.8123 10.04 18.7281 9.8655 18.7176 9.67914C18.707 9.49277 18.771 9.30985 18.8953 9.17061C19.0196 9.03137 19.1941 8.94722 19.3805 8.93667C19.5669 8.92612 19.7498 8.99004 19.889 9.11436L28.5093 16.8065C28.6158 16.9014 28.6909 17.0264 28.7247 17.165C28.7585 17.3035 28.7494 17.449 28.6985 17.5823C28.6477 17.7155 28.5575 17.8301 28.44 17.9109C28.3225 17.9917 28.1832 18.0349 28.0406 18.0347H28.0453Z" fill="#222222"/>
</g>
<defs>
<clipPath id="clip0_634_467">
<rect width="30" height="20" fill="white"/>
</clipPath>
</defs>
</svg>
