<svg width="30" height="20" viewBox="0 0 30 20" fill="none" xmlns="http://www.w3.org/2000/svg">
<g clip-path="url(#clip0_593_801)">
<path d="M25.0402 19.9937H4.95898C3.90264 19.9925 2.88992 19.5723 2.14298 18.8254C1.39603 18.0784 0.97585 17.0657 0.974609 16.0094V3.99062C0.97585 2.93428 1.39603 1.92156 2.14298 1.17462C2.88992 0.427669 3.90264 0.00748904 4.95898 0.00624847H25.0402C26.0966 0.00748904 27.1093 0.427669 27.8562 1.17462C28.6032 1.92156 29.0234 2.93428 29.0246 3.99062V16.0094C29.0234 17.0657 28.6032 18.0784 27.8562 18.8254C27.1093 19.5723 26.0966 19.9925 25.0402 19.9937ZM4.95898 1.4125C4.27522 1.4125 3.61947 1.68412 3.13597 2.16761C2.65248 2.65111 2.38086 3.30686 2.38086 3.99062V16.0094C2.38086 16.6931 2.65248 17.3489 3.13597 17.8324C3.61947 18.3159 4.27522 18.5875 4.95898 18.5875H25.0402C25.724 18.5875 26.3798 18.3159 26.8632 17.8324C27.3467 17.3489 27.6184 16.6931 27.6184 16.0094V3.99062C27.6184 3.30686 27.3467 2.65111 26.8632 2.16761C26.3798 1.68412 25.724 1.4125 25.0402 1.4125H4.95898Z" fill="#222222"/>
<path d="M14.9998 12.85C14.1324 12.8514 13.2882 12.57 12.5951 12.0484L1.64979 3.77031C1.57245 3.71604 1.50685 3.64673 1.4569 3.56654C1.40695 3.48635 1.37367 3.39691 1.35905 3.30357C1.34443 3.21023 1.34878 3.1149 1.37183 3.02327C1.39487 2.93165 1.43615 2.84561 1.49319 2.77029C1.55023 2.69497 1.62186 2.63192 1.70381 2.58491C1.78576 2.53789 1.87634 2.50787 1.97015 2.49664C2.06396 2.48542 2.15907 2.49321 2.2498 2.51956C2.34053 2.54591 2.42502 2.59027 2.49823 2.65L13.4435 10.9375C13.893 11.273 14.4389 11.4543 14.9998 11.4543C15.5607 11.4543 16.1066 11.273 16.556 10.9375L27.5014 2.65C27.5746 2.59027 27.659 2.54591 27.7498 2.51956C27.8405 2.49321 27.9356 2.48542 28.0294 2.49664C28.1232 2.50787 28.2138 2.53789 28.2958 2.58491C28.3777 2.63192 28.4494 2.69497 28.5064 2.77029C28.5634 2.84561 28.6047 2.93165 28.6278 3.02327C28.6508 3.1149 28.6551 3.21023 28.6405 3.30357C28.6259 3.39691 28.5926 3.48635 28.5427 3.56654C28.4927 3.64673 28.4271 3.71604 28.3498 3.77031L17.4045 12.0484C16.7114 12.57 15.8672 12.8514 14.9998 12.85Z" fill="#222222"/>
<path d="M1.95513 18.0344C1.81253 18.0346 1.67323 17.9914 1.55572 17.9106C1.43821 17.8298 1.34805 17.7152 1.2972 17.582C1.24635 17.4487 1.23721 17.3032 1.271 17.1647C1.30479 17.0261 1.37991 16.9011 1.48639 16.8063L10.1114 9.11406C10.2506 8.98974 10.4335 8.92583 10.6199 8.93638C10.8063 8.94692 10.9808 9.03107 11.1051 9.17031C11.2295 9.30955 11.2934 9.49247 11.2828 9.67884C11.2723 9.8652 11.1881 10.0397 11.0489 10.1641L2.42388 17.8562C2.2958 17.9728 2.12829 18.0364 1.95513 18.0344ZM28.0458 18.0344C27.8726 18.0364 27.7051 17.9728 27.577 17.8562L18.952 10.1641C18.8128 10.0397 18.7286 9.8652 18.7181 9.67884C18.7075 9.49247 18.7714 9.30955 18.8958 9.17031C19.0201 9.03107 19.1946 8.94692 19.381 8.93638C19.5673 8.92583 19.7503 8.98974 19.8895 9.11406L28.5098 16.8063C28.6163 16.9011 28.6914 17.0261 28.7252 17.1647C28.759 17.3032 28.7499 17.4487 28.699 17.582C28.6482 17.7152 28.558 17.8298 28.4405 17.9106C28.323 17.9914 28.1837 18.0346 28.0411 18.0344H28.0458Z" fill="#222222"/>
</g>
<defs>
<clipPath id="clip0_593_801">
<rect width="30" height="20" fill="white"/>
</clipPath>
</defs>
</svg>
