<svg width="30" height="20" viewBox="0 0 30 20" fill="none" xmlns="http://www.w3.org/2000/svg">
<path d="M26.8758 14.4031C28.0026 13.0572 28.5942 11.5414 28.5942 10C28.5942 8.4586 28.0026 6.94282 26.8758 5.59688C26.8699 5.55311 26.8499 5.51071 26.817 5.47262C26.7841 5.43453 26.7393 5.40165 26.6855 5.37625C25.1657 3.66837 22.8466 2.34054 20.0846 1.59691C17.3227 0.853285 14.2708 0.735028 11.3982 1.26032C8.52565 1.78562 5.99139 2.92538 4.18507 4.50438C2.37876 6.08339 1.40039 8.01421 1.40039 10C1.40039 11.9858 2.37876 13.9166 4.18507 15.4956C5.99139 17.0746 8.52565 18.2144 11.3982 18.7397C14.2708 19.265 17.3227 19.1467 20.0846 18.4031C22.8466 17.6595 25.1657 16.3316 26.6855 14.6238C26.7393 14.5984 26.7841 14.5655 26.817 14.5274C26.8499 14.4893 26.8699 14.4469 26.8758 14.4031ZM7.20984 14.6875H9.35625C9.80566 15.8668 10.6272 16.9686 11.7661 17.9194C9.76303 17.1989 8.16434 16.0649 7.20984 14.6875ZM2.35594 10.3125H4.69687C4.73962 11.5946 5.10796 12.8625 5.78625 14.0625H3.91125C2.95855 12.9112 2.42574 11.6266 2.35594 10.3125ZM3.91219 5.9375H5.78719C5.1089 7.1375 4.74056 8.40545 4.69781 9.6875H2.35594C2.42603 8.3734 2.95916 7.08875 3.91219 5.9375ZM22.7911 5.3125H20.6447C20.1953 4.13322 19.3737 3.03142 18.2348 2.08063C20.2379 2.80107 21.8366 3.93506 22.7911 5.3125ZM27.645 9.6875H25.3041C25.2613 8.40545 24.893 7.1375 24.2147 5.9375H26.0897C27.0424 7.08881 27.5752 8.37345 27.645 9.6875ZM24.3666 9.6875H21.5573C21.5371 8.42511 21.3128 7.16786 20.8884 5.9375H23.2139C23.933 7.13118 24.3234 8.40149 24.3666 9.6875ZM14.5317 5.9375V9.6875H9.38109C9.40619 8.4235 9.64616 7.16546 10.0964 5.9375H14.5317ZM10.3552 5.3125C11.2927 3.25438 12.817 1.81969 14.5317 1.59563V5.3125H10.3552ZM14.5317 10.3125V14.0625H10.0964C9.64616 12.8345 9.40619 11.5765 9.38109 10.3125H14.5317ZM14.5317 14.6875V18.4044C12.817 18.1803 11.2931 16.7456 10.3552 14.6875H14.5317ZM15.4692 14.0625V10.3125H20.6198C20.5947 11.5765 20.3548 12.8345 19.9045 14.0625H15.4692ZM19.6458 14.6875C18.7083 16.7456 17.1834 18.1803 15.4692 18.4044V14.6875H19.6458ZM15.4692 9.6875V5.9375H19.9045C20.3548 7.16546 20.5947 8.4235 20.6198 9.6875H15.4692ZM15.4692 5.3125V1.59563C17.1834 1.81969 18.7073 3.25438 19.6458 5.3125H15.4692ZM11.7661 2.08063C10.6272 3.03142 9.80566 4.13322 9.35625 5.3125H7.20984C8.16434 3.93506 9.76303 2.80107 11.7661 2.08063ZM9.11203 5.9375C8.68782 7.16787 8.46371 8.42513 8.44359 9.6875H5.63437C5.67736 8.40151 6.06766 7.1312 6.78656 5.9375H9.11203ZM5.63437 10.3125H8.44359C8.46371 11.5749 8.68782 12.8321 9.11203 14.0625H6.78656C6.06766 12.8688 5.67736 11.5985 5.63437 10.3125ZM18.2348 17.9194C19.3737 16.9686 20.1953 15.8668 20.6447 14.6875H22.7911C21.8366 16.0649 20.2379 17.1989 18.2348 17.9194ZM20.8884 14.0625C21.3128 12.8322 21.5371 11.5749 21.5573 10.3125H24.3666C24.3234 11.5985 23.933 12.8688 23.2139 14.0625H20.8884ZM25.3041 10.3125H27.645C27.5749 11.6266 27.0418 12.9113 26.0887 14.0625H24.2137C24.8924 12.8625 25.261 11.5946 25.3041 10.3125ZM25.5178 5.3125H23.8233C23.1064 4.24505 22.0695 3.28666 20.7764 2.49625C22.688 3.15324 24.3191 4.12207 25.5178 5.3125ZM9.22406 2.49625C7.93127 3.28676 6.89457 4.24513 6.17766 5.3125H4.48312C5.68164 4.12208 7.31259 3.15325 9.22406 2.49625ZM4.48312 14.6875H6.17766C6.89471 15.7549 7.93157 16.7133 9.22453 17.5038C7.31289 16.8468 5.68177 15.878 4.48312 14.6875ZM20.7764 17.5038C22.0695 16.7134 23.1064 15.755 23.8233 14.6875H25.5178C24.3191 15.8779 22.688 16.8468 20.7764 17.5038Z" fill="black"/>
</svg>
