<svg width="30" height="20" viewBox="0 0 30 20" fill="none" xmlns="http://www.w3.org/2000/svg">
<g clip-path="url(#clip0_593_807)">
<path d="M15 0.416666C12.393 0.41684 9.83519 0.889642 7.6003 1.78446C5.36541 2.67928 3.5376 3.96244 2.31252 5.49657C1.08745 7.0307 0.511222 8.75805 0.645531 10.4937C0.779841 12.2294 1.61963 13.9081 3.075 15.35L0.625 19.5833L7.1625 18.025C9.03742 18.8409 11.1723 19.3535 13.397 19.5221C15.6216 19.6906 17.8746 19.5103 19.9763 18.9957C22.078 18.481 23.9703 17.6462 25.5024 16.5577C27.0345 15.4692 28.164 14.1572 28.801 12.7262C29.4379 11.2952 29.5647 9.78482 29.1711 8.3154C28.7775 6.84598 27.8745 5.45816 26.534 4.26257C25.1936 3.06697 23.4527 2.09665 21.4502 1.42894C19.4478 0.761233 17.239 0.414598 15 0.416666V0.416666Z" stroke="#303C42" stroke-linecap="round" stroke-linejoin="round"/>
<path d="M11.8752 12.0833C13.5002 13.1667 17.0877 14.5833 18.7502 14.5833C19.4794 14.5883 20.1889 14.4252 20.7584 14.1214C21.3279 13.8177 21.7224 13.3921 21.8752 12.9167V12.0833C21.8752 12.0833 20.3377 11.5833 19.3752 11.25C18.4127 10.9167 16.8752 12.0833 16.8752 12.0833C15.7053 11.8293 14.637 11.4019 13.7502 10.8333C12.8973 10.2421 12.2563 9.52989 11.8752 8.75C11.8752 8.75 13.6252 7.725 13.1252 7.08333C12.6252 6.44166 11.8752 5.41666 11.8752 5.41666H10.6252C9.91203 5.51849 9.2736 5.78151 8.818 6.16118C8.3624 6.54084 8.11764 7.01381 8.12517 7.5C8.12517 8.60833 10.2502 11 11.8752 12.0833Z" stroke="#303C42" stroke-linecap="round" stroke-linejoin="round"/>
</g>
<defs>
<clipPath id="clip0_593_807">
<rect width="30" height="20" fill="white"/>
</clipPath>
</defs>
</svg>
