<svg width="44" height="44" viewBox="0 0 44 44" fill="none" xmlns="http://www.w3.org/2000/svg">
<rect width="44" height="44" rx="22" fill="#22BAFB"/>
<path d="M30 12H14C12.35 12 11 13.125 11 14.5C11 15.875 12.35 17 14 17H30C31.65 17 33 15.875 33 14.5C33 13.125 31.65 12 30 12ZM30 15.3333H14C13.45 15.3333 13 14.9583 13 14.5C13 14.0417 13.45 13.6667 14 13.6667H30C30.55 13.6667 31 14.0417 31 14.5C31 14.9583 30.55 15.3333 30 15.3333Z" fill="white"/>
<path d="M30 19H14C12.35 19 11 20.125 11 21.5C11 22.875 12.35 24 14 24H30C31.65 24 33 22.875 33 21.5C33 20.125 31.65 19 30 19ZM30 22.3333H14C13.45 22.3333 13 21.9583 13 21.5C13 21.0417 13.45 20.6667 14 20.6667H30C30.55 20.6667 31 21.0417 31 21.5C31 21.9583 30.55 22.3333 30 22.3333Z" fill="white"/>
<path d="M30 26H14C12.35 26 11 27.125 11 28.5C11 29.875 12.35 31 14 31H30C31.65 31 33 29.875 33 28.5C33 27.125 31.65 26 30 26ZM30 29.3333H14C13.45 29.3333 13 28.9583 13 28.5C13 28.0417 13.45 27.6667 14 27.6667H30C30.55 27.6667 31 28.0417 31 28.5C31 28.9583 30.55 29.3333 30 29.3333Z" fill="white"/>
</svg>
