<svg width="44" height="44" viewBox="0 0 44 44" fill="none" xmlns="http://www.w3.org/2000/svg">
<rect width="44" height="44" rx="22" fill="#22BAFB"/>
<path d="M12.4561 12.4561C13.0643 11.848 14.0504 11.848 14.6586 12.4561L22 19.7976L29.3414 12.4561C29.9496 11.848 30.9357 11.8479 31.5439 12.4561C32.152 13.0643 32.1521 14.0504 31.5439 14.6586L24.2024 22L31.5439 29.3414C32.1521 29.9496 32.152 30.9357 31.5439 31.5439C30.9357 32.1521 29.9496 32.152 29.3414 31.5439L22 24.2024L14.6586 31.5439C14.0504 32.152 13.0643 32.152 12.4561 31.5439C11.8479 30.9357 11.848 29.9496 12.4561 29.3414L19.7976 22L12.4561 14.6586C11.848 14.0504 11.8479 13.0643 12.4561 12.4561Z" fill="white"/>
</svg>
