<svg width="46" height="46" viewBox="0 0 46 46" fill="none" xmlns="http://www.w3.org/2000/svg">
<path d="M15.9795 15.4359C15.8887 13.5479 16.5493 11.7008 17.817 10.2984C19.0846 8.89592 20.8561 8.05232 22.7441 7.95198C24.6321 8.05232 26.4036 8.89592 27.6712 10.2984C28.9389 11.7008 29.5995 13.5479 29.5087 15.4359C29.5964 17.3216 28.9342 19.1653 27.6668 20.5645C26.3994 21.9637 24.6297 22.8047 22.7441 22.9039C20.8586 22.8047 19.0889 21.9637 17.8214 20.5645C16.554 19.1653 15.8919 17.3216 15.9795 15.4359ZM45.25 23C45.2568 27.4666 43.9221 31.8324 41.4188 35.5321C41.3533 35.6451 41.2782 35.7523 41.1944 35.8526C39.1262 38.8299 36.3678 41.2625 33.1549 42.9425C29.9419 44.6225 26.37 45.5 22.7441 45.5C19.1182 45.5 15.5463 44.6225 12.3333 42.9425C9.1204 41.2625 6.362 38.8299 4.29378 35.8526C4.20998 35.7523 4.1349 35.6451 4.06936 35.5321C2.10972 32.6139 0.861378 29.2772 0.424442 25.7896C-0.0124942 22.3021 0.37414 18.7607 1.55334 15.4495C2.73253 12.1382 4.67147 9.14936 7.21466 6.72252C9.75784 4.29568 12.8345 2.49842 16.1979 1.47489C19.5612 0.451351 23.1177 0.230022 26.5821 0.828649C30.0465 1.42728 33.3223 2.8292 36.1469 4.92199C38.9715 7.01478 41.2662 9.74018 42.8471 12.8796C44.4279 16.0191 45.2509 19.4852 45.25 23ZM2.64271 23C2.63669 26.4144 3.50295 29.7737 5.15939 32.7596C8.63786 28.1923 15.3063 25.3398 22.7441 25.3398C30.1819 25.3398 36.8503 28.1923 40.3288 32.7596C41.8184 30.0765 42.6738 27.088 42.8293 24.0233C42.9848 20.9586 42.4364 17.8989 41.2261 15.0788C40.0157 12.2588 38.1756 9.7532 35.8468 7.75415C33.5179 5.7551 30.7622 4.31565 27.7908 3.54614C24.8194 2.77663 21.7112 2.69749 18.7044 3.31478C15.6977 3.93206 12.8722 5.2294 10.4446 7.10733C8.01697 8.98527 6.05166 11.3939 4.6993 14.1488C3.34695 16.9036 2.64344 19.9313 2.64271 23Z" fill="#FFFDFD"/>
</svg>
