<svg width="132" height="132" viewBox="0 0 132 132" fill="none" xmlns="http://www.w3.org/2000/svg">
<path d="M45.9968 43.6877C45.7313 38.1653 47.6632 32.7623 51.37 28.6602C55.0768 24.5581 60.2571 22.0906 65.7781 21.7971C71.2991 22.0906 76.4794 24.5581 80.1862 28.6602C83.893 32.7623 85.8249 38.1653 85.5593 43.6877C85.8157 49.2032 83.8794 54.596 80.1731 58.6887C76.4669 62.7814 71.2919 65.2413 65.7781 65.5315C60.2643 65.2413 55.0893 62.7814 51.3831 58.6887C47.6768 54.596 45.7405 49.2032 45.9968 43.6877ZM131.591 65.8127C131.611 78.8775 127.708 91.6475 120.387 102.469C120.196 102.8 119.976 103.113 119.731 103.406C113.683 112.115 105.617 119.231 96.2217 124.145C86.8263 129.059 76.381 131.625 65.7781 131.625C55.1752 131.625 44.7299 129.059 35.3345 124.145C25.9392 119.231 17.8729 112.115 11.825 103.406C11.5799 103.113 11.3604 102.8 11.1687 102.469C5.43828 93.9333 1.78782 84.1735 0.51011 73.9724C-0.767595 63.7712 0.363013 53.4126 3.81126 43.7272C7.25951 34.0419 12.9294 25.2994 20.3663 18.2009C27.8032 11.1024 36.8 5.8454 46.6353 2.85155C56.4706 -0.142298 66.8706 -0.789687 77.0013 0.961301C87.1319 2.71229 96.7113 6.81293 104.971 12.9343C113.231 19.0558 119.941 27.0276 124.564 36.2105C129.187 45.3934 131.593 55.5319 131.591 65.8127ZM6.99685 65.8127C6.97924 75.7998 9.5124 85.6258 14.3562 94.3596C24.5281 81.0002 44.0281 72.6565 65.7781 72.6565C87.5281 72.6565 107.028 81.0002 117.2 94.3596C121.556 86.5115 124.057 77.7702 124.512 68.8058C124.967 59.8414 123.363 50.8919 119.824 42.6432C116.284 34.3945 110.904 27.0657 104.093 21.2184C97.2834 15.3712 89.2249 11.1608 80.5358 8.90998C71.8467 6.65916 62.7575 6.42766 53.9651 8.23323C45.1726 10.0388 36.9103 13.8335 29.8114 19.3265C22.7125 24.8195 16.9654 31.8649 13.0108 39.9227C9.0562 47.9805 6.99899 56.8368 6.99685 65.8127Z" fill="black"/>
</svg>
