<svg width="50" height="50" viewBox="0 0 50 50" fill="none" xmlns="http://www.w3.org/2000/svg">
<path d="M25 0C11.1875 0 0 11.1875 0 25C0 38.8125 11.1875 50 25 50C38.8125 50 50 38.8125 50 25C50 11.1875 38.8125 0 25 0ZM25 7.5C29.1375 7.5 32.5 10.8625 32.5 15C32.5 19.15 29.1375 22.5 25 22.5C20.8625 22.5 17.5 19.15 17.5 15C17.5 10.8625 20.8625 7.5 25 7.5ZM25 43C18.7375 43 13.2375 39.8 10 34.95C10.0625 29.9875 20.0125 27.25 25 27.25C29.9875 27.25 39.925 29.9875 40 34.95C36.7625 39.8 31.2625 43 25 43Z" fill="black"/>
</svg>
